<mxfile host="65bd71144e" pages="2">
    <diagram name="老師身分" id="YJhax-N-LcNQEdd3gq7n">
        <mxGraphModel dx="576" dy="332" grid="1" gridSize="10" guides="1" tooltips="1" connect="1" arrows="1" fold="1" page="1" pageScale="1" pageWidth="3300" pageHeight="4681" math="0" shadow="0">
            <root>
                <mxCell id="0"/>
                <mxCell id="1" parent="0"/>
                <mxCell id="w0u9RNHJgTUNn4yF4F6x-2" value="上傳資料" style="shape=umlLifeline;perimeter=lifelinePerimeter;whiteSpace=wrap;html=1;container=1;dropTarget=0;collapsible=0;recursiveResize=0;outlineConnect=0;portConstraint=eastwest;newEdgeStyle={&quot;curved&quot;:0,&quot;rounded&quot;:0};participant=umlControl;size=70;" parent="1" vertex="1">
                    <mxGeometry x="301" y="100" width="70" height="400" as="geometry"/>
                </mxCell>
                <mxCell id="w0u9RNHJgTUNn4yF4F6x-14" value="" style="html=1;points=[[0,0,0,0,5],[0,1,0,0,-5],[1,0,0,0,5],[1,1,0,0,-5]];perimeter=orthogonalPerimeter;outlineConnect=0;targetShapes=umlLifeline;portConstraint=eastwest;newEdgeStyle={&quot;curved&quot;:0,&quot;rounded&quot;:0};" parent="w0u9RNHJgTUNn4yF4F6x-2" vertex="1">
                    <mxGeometry x="30" y="115" width="10" height="35" as="geometry"/>
                </mxCell>
                <mxCell id="w0u9RNHJgTUNn4yF4F6x-3" value="生成推薦內容" style="shape=umlLifeline;perimeter=lifelinePerimeter;whiteSpace=wrap;html=1;container=1;dropTarget=0;collapsible=0;recursiveResize=0;outlineConnect=0;portConstraint=eastwest;newEdgeStyle={&quot;curved&quot;:0,&quot;rounded&quot;:0};participant=umlControl;size=80;" parent="1" vertex="1">
                    <mxGeometry x="491" y="100" width="80" height="400" as="geometry"/>
                </mxCell>
                <mxCell id="w0u9RNHJgTUNn4yF4F6x-10" value="" style="html=1;points=[[0,0,0,0,5],[0,1,0,0,-5],[1,0,0,0,5],[1,1,0,0,-5]];perimeter=orthogonalPerimeter;outlineConnect=0;targetShapes=umlLifeline;portConstraint=eastwest;newEdgeStyle={&quot;curved&quot;:0,&quot;rounded&quot;:0};" parent="w0u9RNHJgTUNn4yF4F6x-3" vertex="1">
                    <mxGeometry x="35" y="146" width="10" height="50" as="geometry"/>
                </mxCell>
                <mxCell id="w0u9RNHJgTUNn4yF4F6x-9" value="1:提出備課資料()" style="html=1;verticalAlign=bottom;startArrow=none;startFill=0;endArrow=block;startSize=8;" parent="1" edge="1">
                    <mxGeometry width="60" relative="1" as="geometry">
                        <mxPoint x="340" y="250.99999999999997" as="sourcePoint"/>
                        <mxPoint x="529.5" y="251" as="targetPoint"/>
                    </mxGeometry>
                </mxCell>
            </root>
        </mxGraphModel>
    </diagram>
    <diagram id="cc70GZquX2ByTeVMwbqB" name="GPT身分">
        <mxGraphModel dx="576" dy="332" grid="1" gridSize="10" guides="1" tooltips="1" connect="1" arrows="1" fold="1" page="1" pageScale="1" pageWidth="3300" pageHeight="4681" math="0" shadow="0">
            <root>
                <mxCell id="0"/>
                <mxCell id="1" parent="0"/>
                <mxCell id="90s9_CREnXh_7r0UGWjc-1" value="" style="shape=umlLifeline;perimeter=lifelinePerimeter;whiteSpace=wrap;html=1;container=1;dropTarget=0;collapsible=0;recursiveResize=0;outlineConnect=0;portConstraint=eastwest;newEdgeStyle={&quot;curved&quot;:0,&quot;rounded&quot;:0};participant=umlActor;size=50;" parent="1" vertex="1">
                    <mxGeometry x="11" y="110" width="40" height="380" as="geometry"/>
                </mxCell>
                <mxCell id="90s9_CREnXh_7r0UGWjc-3" value="3:傳送分析資料()" style="html=1;verticalAlign=bottom;startArrow=none;startFill=0;endArrow=block;startSize=8;" parent="1" target="E2JmZn8zEcEdn4w3PUnU-1" edge="1">
                    <mxGeometry width="60" relative="1" as="geometry">
                        <mxPoint x="300" y="294.5" as="sourcePoint"/>
                        <mxPoint x="428.79999999999995" y="294.5" as="targetPoint"/>
                    </mxGeometry>
                </mxCell>
                <mxCell id="90s9_CREnXh_7r0UGWjc-6" value="1:建立備課資料()" style="html=1;verticalAlign=bottom;startArrow=none;startFill=0;endArrow=block;startSize=8;" parent="1" target="Q-6aSUCuVOY74vQfzuBb-1" edge="1">
                    <mxGeometry x="0.0019" width="60" relative="1" as="geometry">
                        <mxPoint x="30" y="220" as="sourcePoint"/>
                        <mxPoint x="158.79999999999995" y="220" as="targetPoint"/>
                        <mxPoint as="offset"/>
                    </mxGeometry>
                </mxCell>
                <mxCell id="E2JmZn8zEcEdn4w3PUnU-1" value="GPT資料庫" style="shape=umlLifeline;perimeter=lifelinePerimeter;whiteSpace=wrap;html=1;container=1;dropTarget=0;collapsible=0;recursiveResize=0;outlineConnect=0;portConstraint=eastwest;newEdgeStyle={&quot;curved&quot;:0,&quot;rounded&quot;:0};participant=umlEntity;size=70;" parent="1" vertex="1">
                    <mxGeometry x="460" y="110" width="70" height="380" as="geometry"/>
                </mxCell>
                <mxCell id="Q-6aSUCuVOY74vQfzuBb-8" value="" style="html=1;points=[[0,0,0,0,5],[0,1,0,0,-5],[1,0,0,0,5],[1,1,0,0,-5]];perimeter=orthogonalPerimeter;outlineConnect=0;targetShapes=umlLifeline;portConstraint=eastwest;newEdgeStyle={&quot;curved&quot;:0,&quot;rounded&quot;:0};" parent="E2JmZn8zEcEdn4w3PUnU-1" vertex="1">
                    <mxGeometry x="30" y="180" width="10" height="50" as="geometry"/>
                </mxCell>
                <mxCell id="Q-6aSUCuVOY74vQfzuBb-1" value=":建立" style="shape=umlLifeline;perimeter=lifelinePerimeter;whiteSpace=wrap;html=1;container=1;dropTarget=0;collapsible=0;recursiveResize=0;outlineConnect=0;portConstraint=eastwest;newEdgeStyle={&quot;curved&quot;:0,&quot;rounded&quot;:0};participant=umlControl;size=70;" parent="1" vertex="1">
                    <mxGeometry x="250" y="110" width="80" height="370" as="geometry"/>
                </mxCell>
                <mxCell id="Q-6aSUCuVOY74vQfzuBb-2" value="" style="html=1;points=[[0,0,0,0,5],[0,1,0,0,-5],[1,0,0,0,5],[1,1,0,0,-5]];perimeter=orthogonalPerimeter;outlineConnect=0;targetShapes=umlLifeline;portConstraint=eastwest;newEdgeStyle={&quot;curved&quot;:0,&quot;rounded&quot;:0};" parent="Q-6aSUCuVOY74vQfzuBb-1" vertex="1">
                    <mxGeometry x="35" y="110" width="10" height="80" as="geometry"/>
                </mxCell>
                <mxCell id="Q-6aSUCuVOY74vQfzuBb-6" value="2:分析備課資料()" style="html=1;align=left;spacingLeft=2;endArrow=block;rounded=0;edgeStyle=orthogonalEdgeStyle;curved=0;rounded=0;" parent="1" edge="1">
                    <mxGeometry relative="1" as="geometry">
                        <mxPoint x="300" y="240" as="sourcePoint"/>
                        <Array as="points">
                            <mxPoint x="330" y="270"/>
                        </Array>
                        <mxPoint x="305" y="270" as="targetPoint"/>
                    </mxGeometry>
                </mxCell>
                <mxCell id="Q-6aSUCuVOY74vQfzuBb-7" value="4:儲存推薦資料()" style="html=1;verticalAlign=bottom;startArrow=block;startFill=1;endArrow=none;startSize=8;endFill=0;dashed=1;" parent="1" source="pg8dtepmqFzvqZeHRlJh-1" edge="1">
                    <mxGeometry width="60" relative="1" as="geometry">
                        <mxPoint x="300" y="330" as="sourcePoint"/>
                        <mxPoint x="495" y="330.5" as="targetPoint"/>
                    </mxGeometry>
                </mxCell>
                <mxCell id="pg8dtepmqFzvqZeHRlJh-1" value=":儲存" style="shape=umlLifeline;perimeter=lifelinePerimeter;whiteSpace=wrap;html=1;container=1;dropTarget=0;collapsible=0;recursiveResize=0;outlineConnect=0;portConstraint=eastwest;newEdgeStyle={&quot;curved&quot;:0,&quot;rounded&quot;:0};participant=umlControl;size=70;" parent="1" vertex="1">
                    <mxGeometry x="120" y="110" width="80" height="370" as="geometry"/>
                </mxCell>
                <mxCell id="pg8dtepmqFzvqZeHRlJh-2" value="" style="html=1;points=[[0,0,0,0,5],[0,1,0,0,-5],[1,0,0,0,5],[1,1,0,0,-5]];perimeter=orthogonalPerimeter;outlineConnect=0;targetShapes=umlLifeline;portConstraint=eastwest;newEdgeStyle={&quot;curved&quot;:0,&quot;rounded&quot;:0};" parent="pg8dtepmqFzvqZeHRlJh-1" vertex="1">
                    <mxGeometry x="35" y="216" width="10" height="30" as="geometry"/>
                </mxCell>
            </root>
        </mxGraphModel>
    </diagram>
</mxfile>